<svg width="16" height="18" viewBox="0 0 16 18" fill="none" xmlns="http://www.w3.org/2000/svg">
<path d="M5.14286 4.5C5.14286 3.75408 5.44388 3.03871 5.9797 2.51126C6.51551 1.98382 7.24224 1.6875 8 1.6875C8.75776 1.6875 9.48449 1.98382 10.0203 2.51126C10.5561 3.03871 10.8571 3.75408 10.8571 4.5C10.8571 5.24592 10.5561 5.96129 10.0203 6.48874C9.48449 7.01618 8.75776 7.3125 8 7.3125C7.24224 7.3125 6.51551 7.01618 5.9797 6.48874C5.44388 5.96129 5.14286 5.24592 5.14286 4.5ZM12.5714 4.5C12.5714 3.30653 12.0898 2.16193 11.2325 1.31802C10.3752 0.474106 9.21242 0 8 0C6.78758 0 5.62482 0.474106 4.76751 1.31802C3.9102 2.16193 3.42857 3.30653 3.42857 4.5C3.42857 5.69347 3.9102 6.83807 4.76751 7.68198C5.62482 8.5259 6.78758 9 8 9C9.21242 9 10.3752 8.5259 11.2325 7.68198C12.0898 6.83807 12.5714 5.69347 12.5714 4.5ZM14.2393 16.3125H1.76071C2.07857 14.0871 4.02143 12.375 6.36786 12.375H9.63214C11.9786 12.375 13.9214 14.0871 14.2393 16.3125ZM16 16.9559C16 13.493 13.15 10.6875 9.63214 10.6875H6.36786C2.85 10.6875 9.53674e-07 13.493 9.53674e-07 16.9559C9.53674e-07 17.5324 0.475001 18 1.06072 18H14.9393C15.525 18 16 17.5324 16 16.9559Z" fill="#6DA9E4"/>
</svg>
